<?xml version="1.0" encoding="utf-8"?>
<!-- Generator: Adobe Illustrator 22.1.0, SVG Export Plug-In . SVG Version: 6.00 Build 0)  -->
<svg version="1.1" id="synx-logo" xmlns="http://www.w3.org/2000/svg" xmlns:xlink="http://www.w3.org/1999/xlink" x="0px" y="0px"
	 viewBox="0 0 274.6 258" style="enable-background:new 0 0 274.6 258;" xml:space="preserve">
<style type="text/css">
	.st0{fill:#4c8ff3;}
</style>
<path id="s" class="st0" d="M60.1,134.9c0,4.8-2.1,8.8-6.2,12c-4.2,3.3-9.4,4.9-15.7,4.9c-5.5,0-10.3-1.4-14.5-4.3
	c-4.2-2.9-7.1-6.6-8.9-11.3l9.1-3.9c1.3,3.3,3.3,5.8,5.9,7.6c2.6,1.8,5.4,2.7,8.4,2.7c3.3,0,6-0.7,8.2-2.1c2.2-1.4,3.3-3.1,3.3-5
	c0-3.5-2.7-6.1-8-7.7l-9.4-2.3c-10.6-2.7-16-7.8-16-15.4c0-5,2-9,6.1-12c4.1-3,9.2-4.5,15.6-4.5c4.8,0,9.2,1.2,13.1,3.5
	c3.9,2.3,6.6,5.4,8.2,9.3l-9.1,3.8c-1-2.3-2.7-4.1-5.1-5.4c-2.3-1.3-5-2-7.9-2c-2.7,0-5.1,0.7-7.2,2c-2.1,1.3-3.2,3-3.2,4.9
	c0,3.1,2.9,5.4,8.8,6.7l8.3,2.1C54.7,121.1,60.1,126.6,60.1,134.9z"/>
<path id="y" class="st0" d="M117.9,95.4l-33.3,75.4H74l11.8-24.2L63.2,95.4h11.2l16.3,39.3h0.2l15.8-39.3H117.9z"/>
<path id="n" class="st0" d="M124.6,95.4h9.8v7.6h0.4c1.6-2.7,4-4.9,7.2-6.7c3.2-1.8,6.6-2.7,10.1-2.7c6.7,0,11.8,1.9,15.4,5.7
	c3.6,3.8,5.4,9.3,5.4,16.3V150h-10.3v-33.7c-0.2-8.9-4.7-13.4-13.5-13.4c-4.1,0-7.5,1.7-10.3,5c-2.8,3.3-4.1,7.3-4.1,11.9V150h-10.3
	V95.4z"/>
<g>
	<path class="st0" d="M273.9,90c0,2.3-0.8,4.2-2.4,5.8c-1.6,1.6-3.5,2.4-5.8,2.4c-2.3,0-4.2-0.8-5.8-2.4c-1.6-1.6-2.4-3.5-2.4-5.8
		c0-2.3,0.8-4.2,2.4-5.8c1.6-1.6,3.6-2.4,5.8-2.4c2.2,0,4.2,0.8,5.8,2.4C273.1,85.8,273.9,87.7,273.9,90z M259.2,90
		c0,1.8,0.6,3.3,1.9,4.6c1.3,1.3,2.8,1.9,4.6,1.9c1.8,0,3.3-0.6,4.6-1.9c1.3-1.3,1.9-2.8,1.9-4.6c0-1.8-0.6-3.3-1.9-4.6
		c-1.3-1.3-2.8-1.9-4.6-1.9c-1.8,0-3.3,0.6-4.6,1.9C259.8,86.7,259.2,88.2,259.2,90z M267.4,94l-2-3h-0.9v3h-1.6v-8.1h3.4
		c0.7,0,1.3,0.3,1.8,0.8c0.5,0.5,0.8,1.1,0.8,1.8c0,0.5-0.2,1-0.5,1.5c-0.3,0.4-0.8,0.7-1.3,0.9l-0.1,0.1l2.1,3V94H267.4z
		 M264.6,89.5h1.6c0.3,0,0.6-0.1,0.8-0.3c0.2-0.2,0.3-0.4,0.3-0.7c0-0.7-0.4-1-1.3-1h-1.4V89.5z"/>
</g>
<g>
	<path class="st0" d="M100.3,170.9c-0.7,0-1.3-0.1-1.8-0.4c-0.5-0.3-1-0.6-1.2-1.1h-0.1v1.2h-1.6v-13h1.7v4.1l-0.1,1.2h0.1
		c0.3-0.5,0.7-0.8,1.2-1.1c0.5-0.3,1.1-0.4,1.8-0.4c1.2,0,2.2,0.5,3,1.4c0.8,0.9,1.3,2.1,1.3,3.4c0,1.3-0.4,2.4-1.3,3.4
		C102.4,170.5,101.4,170.9,100.3,170.9z M100,169.4c0.8,0,1.5-0.3,2-0.9c0.5-0.6,0.8-1.4,0.8-2.3c0-0.9-0.3-1.7-0.8-2.3
		c-0.5-0.6-1.2-0.9-2-0.9c-0.8,0-1.5,0.3-2,0.9c-0.5,0.6-0.8,1.4-0.8,2.3c0,0.9,0.3,1.7,0.8,2.3C98.5,169.1,99.2,169.4,100,169.4z"
		/>
	<path class="st0" d="M110,170.9c-1.3,0-2.4-0.4-3.2-1.3c-0.9-0.9-1.3-2-1.3-3.4c0-1.4,0.4-2.5,1.2-3.4c0.8-0.9,1.9-1.4,3.2-1.4
		c1.3,0,2.4,0.4,3.2,1.3c0.8,0.9,1.2,2.1,1.2,3.6l0,0.2h-7c0,0.9,0.3,1.6,0.9,2.1c0.6,0.5,1.2,0.8,2,0.8c1.1,0,1.9-0.5,2.5-1.6
		l1.5,0.7c-0.4,0.8-1,1.3-1.7,1.8C111.7,170.7,110.9,170.9,110,170.9z M107.4,165.1h5.1c0-0.6-0.3-1.1-0.8-1.5
		c-0.5-0.4-1.1-0.6-1.8-0.6c-0.6,0-1.2,0.2-1.6,0.6C107.8,163.9,107.5,164.4,107.4,165.1z"/>
	<path class="st0" d="M123.6,161.7l-5.6,12.9h-1.7l2.1-4.5l-3.7-8.4h1.8l2.7,6.4h0l2.6-6.4H123.6z"/>
	<path class="st0" d="M123.8,166.2c0-1.4,0.4-2.5,1.3-3.4c0.9-0.9,2-1.3,3.3-1.3s2.4,0.5,3.3,1.3c0.9,0.9,1.3,2,1.3,3.4
		c0,1.4-0.4,2.5-1.3,3.4c-0.9,0.9-2,1.3-3.3,1.3s-2.4-0.4-3.3-1.3C124.2,168.7,123.8,167.5,123.8,166.2z M125.5,166.2
		c0,1,0.3,1.7,0.8,2.3c0.6,0.6,1.3,0.9,2.1,0.9s1.5-0.3,2.1-0.9c0.6-0.6,0.8-1.4,0.8-2.3c0-0.9-0.3-1.7-0.8-2.3
		c-0.6-0.6-1.3-0.9-2.1-0.9c-0.8,0-1.5,0.3-2.1,0.9C125.8,164.4,125.5,165.2,125.5,166.2z"/>
	<path class="st0" d="M134.4,161.7h1.6v1.2h0.1c0.3-0.4,0.6-0.8,1.2-1.1s1.1-0.4,1.6-0.4c1.1,0,1.9,0.3,2.5,0.9
		c0.6,0.6,0.9,1.5,0.9,2.7v5.6h-1.7v-5.5c0-1.5-0.8-2.2-2.2-2.2c-0.7,0-1.2,0.3-1.7,0.8c-0.4,0.5-0.7,1.2-0.7,1.9v4.9h-1.7V161.7z"
		/>
	<path class="st0" d="M148,170.9c-1.2,0-2.2-0.5-3-1.4c-0.8-0.9-1.2-2.1-1.2-3.4c0-1.3,0.4-2.4,1.2-3.4c0.8-0.9,1.8-1.4,3-1.4
		c0.7,0,1.3,0.1,1.8,0.4c0.5,0.3,1,0.7,1.2,1.1h0.1l-0.1-1.2v-4.1h1.7v13h-1.6v-1.2H151c-0.3,0.5-0.7,0.8-1.2,1.1
		C149.2,170.8,148.6,170.9,148,170.9z M148.2,169.4c0.8,0,1.5-0.3,2-0.9c0.5-0.6,0.8-1.4,0.8-2.3c0-0.9-0.3-1.7-0.8-2.3
		c-0.5-0.6-1.2-0.9-2-0.9c-0.8,0-1.5,0.3-2,0.9s-0.8,1.4-0.8,2.3c0,0.9,0.3,1.7,0.8,2.3C146.8,169.1,147.4,169.4,148.2,169.4z"/>
	<path class="st0" d="M163.5,170.9c-0.7,0-1.3-0.1-1.8-0.4c-0.5-0.3-1-0.6-1.2-1.1h-0.1v1.2h-1.6v-13h1.7v4.1l-0.1,1.2h0.1
		c0.3-0.5,0.7-0.8,1.2-1.1c0.5-0.3,1.1-0.4,1.8-0.4c1.2,0,2.2,0.5,3,1.4c0.8,0.9,1.3,2.1,1.3,3.4c0,1.3-0.4,2.4-1.3,3.4
		C165.6,170.5,164.6,170.9,163.5,170.9z M163.2,169.4c0.8,0,1.5-0.3,2-0.9c0.5-0.6,0.8-1.4,0.8-2.3c0-0.9-0.3-1.7-0.8-2.3
		s-1.2-0.9-2-0.9c-0.8,0-1.5,0.3-2,0.9c-0.5,0.6-0.8,1.4-0.8,2.3c0,0.9,0.3,1.7,0.8,2.3C161.7,169.1,162.4,169.4,163.2,169.4z"/>
	<path class="st0" d="M177,170.6h-1.6v-1.2h-0.1c-0.3,0.4-0.6,0.8-1.2,1.1c-0.5,0.3-1.1,0.4-1.6,0.4c-1.1,0-1.9-0.3-2.5-0.9
		c-0.6-0.6-0.9-1.5-0.9-2.7v-5.6h1.7v5.5c0,1.5,0.8,2.2,2.2,2.2c0.7,0,1.2-0.3,1.7-0.8c0.4-0.5,0.7-1.2,0.7-1.9v-4.9h1.7V170.6z"/>
	<path class="st0" d="M185.8,168.2c0,0.8-0.3,1.4-1,2c-0.7,0.5-1.5,0.8-2.6,0.8c-0.9,0-1.7-0.2-2.4-0.7c-0.7-0.5-1.2-1.1-1.5-1.8
		l1.5-0.6c0.2,0.5,0.5,1,1,1.2c0.4,0.3,0.9,0.4,1.4,0.4c0.5,0,1-0.1,1.3-0.3c0.4-0.2,0.5-0.5,0.5-0.8c0-0.6-0.4-1-1.3-1.3l-1.5-0.4
		c-1.7-0.4-2.6-1.3-2.6-2.5c0-0.8,0.3-1.5,1-2s1.5-0.7,2.5-0.7c0.8,0,1.5,0.2,2.1,0.6c0.6,0.4,1.1,0.9,1.3,1.5l-1.5,0.6
		c-0.2-0.4-0.4-0.7-0.8-0.9s-0.8-0.3-1.3-0.3c-0.4,0-0.8,0.1-1.2,0.3c-0.3,0.2-0.5,0.5-0.5,0.8c0,0.5,0.5,0.9,1.4,1.1l1.3,0.3
		C184.9,165.9,185.8,166.8,185.8,168.2z"/>
	<path class="st0" d="M189.3,158.6c0,0.3-0.1,0.6-0.3,0.8c-0.2,0.2-0.5,0.3-0.8,0.3c-0.3,0-0.6-0.1-0.8-0.3
		c-0.2-0.2-0.3-0.5-0.3-0.8s0.1-0.6,0.3-0.8c0.2-0.2,0.5-0.3,0.8-0.3c0.3,0,0.6,0.1,0.8,0.3C189.2,158,189.3,158.3,189.3,158.6z
		 M188.9,161.7v8.9h-1.7v-8.9H188.9z"/>
	<path class="st0" d="M191.1,161.7h1.6v1.2h0.1c0.3-0.4,0.6-0.8,1.2-1.1s1.1-0.4,1.6-0.4c1.1,0,1.9,0.3,2.5,0.9
		c0.6,0.6,0.9,1.5,0.9,2.7v5.6h-1.7v-5.5c0-1.5-0.8-2.2-2.2-2.2c-0.7,0-1.2,0.3-1.7,0.8c-0.4,0.5-0.7,1.2-0.7,1.9v4.9h-1.7V161.7z"
		/>
	<path class="st0" d="M205,170.9c-1.3,0-2.4-0.4-3.2-1.3c-0.9-0.9-1.3-2-1.3-3.4c0-1.4,0.4-2.5,1.2-3.4c0.8-0.9,1.9-1.4,3.2-1.4
		c1.3,0,2.4,0.4,3.2,1.3c0.8,0.9,1.2,2.1,1.2,3.6l0,0.2h-7c0,0.9,0.3,1.6,0.9,2.1c0.6,0.5,1.2,0.8,2,0.8c1.1,0,1.9-0.5,2.5-1.6
		l1.5,0.7c-0.4,0.8-1,1.3-1.7,1.8C206.7,170.7,205.9,170.9,205,170.9z M202.3,165.1h5.1c0-0.6-0.3-1.1-0.8-1.5
		c-0.5-0.4-1.1-0.6-1.8-0.6c-0.6,0-1.2,0.2-1.6,0.6C202.8,163.9,202.5,164.4,202.3,165.1z"/>
	<path class="st0" d="M217.7,168.2c0,0.8-0.3,1.4-1,2c-0.7,0.5-1.5,0.8-2.6,0.8c-0.9,0-1.7-0.2-2.4-0.7s-1.2-1.1-1.5-1.8l1.5-0.6
		c0.2,0.5,0.5,1,1,1.2s0.9,0.4,1.4,0.4c0.5,0,1-0.1,1.3-0.3c0.4-0.2,0.5-0.5,0.5-0.8c0-0.6-0.4-1-1.3-1.3l-1.5-0.4
		c-1.7-0.4-2.6-1.3-2.6-2.5c0-0.8,0.3-1.5,1-2s1.5-0.7,2.5-0.7c0.8,0,1.5,0.2,2.1,0.6c0.6,0.4,1.1,0.9,1.3,1.5l-1.5,0.6
		c-0.2-0.4-0.4-0.7-0.8-0.9s-0.8-0.3-1.3-0.3c-0.4,0-0.8,0.1-1.2,0.3c-0.3,0.2-0.5,0.5-0.5,0.8c0,0.5,0.5,0.9,1.4,1.1l1.3,0.3
		C216.8,165.9,217.7,166.8,217.7,168.2z"/>
	<path class="st0" d="M226,168.2c0,0.8-0.3,1.4-1,2c-0.7,0.5-1.5,0.8-2.6,0.8c-0.9,0-1.7-0.2-2.4-0.7c-0.7-0.5-1.2-1.1-1.5-1.8
		l1.5-0.6c0.2,0.5,0.5,1,1,1.2c0.4,0.3,0.9,0.4,1.4,0.4c0.5,0,1-0.1,1.3-0.3c0.4-0.2,0.5-0.5,0.5-0.8c0-0.6-0.4-1-1.3-1.3l-1.5-0.4
		c-1.7-0.4-2.6-1.3-2.6-2.5c0-0.8,0.3-1.5,1-2s1.5-0.7,2.5-0.7c0.8,0,1.5,0.2,2.1,0.6c0.6,0.4,1.1,0.9,1.3,1.5l-1.5,0.6
		c-0.2-0.4-0.4-0.7-0.8-0.9s-0.8-0.3-1.3-0.3c-0.4,0-0.8,0.1-1.2,0.3c-0.3,0.2-0.5,0.5-0.5,0.8c0,0.5,0.5,0.9,1.4,1.1l1.3,0.3
		C225.1,165.9,226,166.8,226,168.2z"/>
</g>
<path id="circle" class="st0" d="M129.4,0.3C58.6,0.3,1.1,57.8,1.1,128.6c0,70.8,57.6,128.3,128.3,128.3s128.3-57.5,128.3-128.3
	C257.7,57.8,200.1,0.3,129.4,0.3z M240.2,175.4c-18.3,43.2-61.1,73.5-110.8,73.5c-66.3,0-120.3-54-120.3-120.3
	C9.1,62.2,63,8.3,129.4,8.3c48.7,0,90.8,29.1,109.7,70.8v0c0.7,1.4,1.3,2.9,1.8,4.3c5.7,13.9,8.8,29.2,8.8,45.1
	c0,12.3-1.9,24.2-5.3,35.4C243.1,167.9,241.8,171.7,240.2,175.4z"/>
<path id="x" class="st0" d="M234.4,149.9L234.4,149.9l-20-28.7L237.6,89c-0.1-0.2-0.1-0.4-0.2-0.6c-0.1-0.3-0.3-0.7-0.4-1
	c-1.3-3.3-2.7-6.6-4.3-9.8l-2,2.9l0,0l-0.4,0.7l-6.2,9.2l-15.6,23.2l-13.8-19.7h-11.8l19.2,27.4l-19.7,28.3h12.3l13.5-20.6
	l20.2,29.8l0,0l7.4,11l0.8,1c0.6-1.5,1.2-3.1,1.7-4.7c0.8-2.4,1.6-4.8,2.2-7.3L234.4,149.9z"/>
</svg>
